<mxfile host="app.diagrams.net" agent="Mozilla/5.0 (Windows NT 10.0; Win64; x64) AppleWebKit/537.36 (KHTML, like Gecko) Chrome/133.0.0.0 Safari/537.36" version="26.0.16">
  <diagram id="C5RBs43oDa-KdzZeNtuy" name="Page-1">
    <mxGraphModel dx="2003" dy="707" grid="1" gridSize="10" guides="1" tooltips="1" connect="1" arrows="1" fold="1" page="1" pageScale="2.5" pageWidth="827" pageHeight="1169" math="0" shadow="0">
      <root>
        <mxCell id="WIyWlLk6GJQsqaUBKTNV-0" />
        <mxCell id="WIyWlLk6GJQsqaUBKTNV-1" parent="WIyWlLk6GJQsqaUBKTNV-0" />
        <mxCell id="hc9wLcFZlQd3v7HxFwp2-2" style="edgeStyle=orthogonalEdgeStyle;rounded=0;orthogonalLoop=1;jettySize=auto;html=1;" edge="1" parent="WIyWlLk6GJQsqaUBKTNV-1" source="hc9wLcFZlQd3v7HxFwp2-0" target="hc9wLcFZlQd3v7HxFwp2-1">
          <mxGeometry relative="1" as="geometry" />
        </mxCell>
        <mxCell id="hc9wLcFZlQd3v7HxFwp2-0" value="START" style="ellipse;whiteSpace=wrap;html=1;" vertex="1" parent="WIyWlLk6GJQsqaUBKTNV-1">
          <mxGeometry x="820" y="30" width="120" height="80" as="geometry" />
        </mxCell>
        <mxCell id="hc9wLcFZlQd3v7HxFwp2-4" value="" style="edgeStyle=orthogonalEdgeStyle;rounded=0;orthogonalLoop=1;jettySize=auto;html=1;" edge="1" parent="WIyWlLk6GJQsqaUBKTNV-1" source="hc9wLcFZlQd3v7HxFwp2-1" target="hc9wLcFZlQd3v7HxFwp2-3">
          <mxGeometry relative="1" as="geometry" />
        </mxCell>
        <mxCell id="hc9wLcFZlQd3v7HxFwp2-1" value="Display menu" style="shape=parallelogram;perimeter=parallelogramPerimeter;whiteSpace=wrap;html=1;fixedSize=1;" vertex="1" parent="WIyWlLk6GJQsqaUBKTNV-1">
          <mxGeometry x="805" y="150" width="150" height="60" as="geometry" />
        </mxCell>
        <mxCell id="hc9wLcFZlQd3v7HxFwp2-6" value="" style="edgeStyle=orthogonalEdgeStyle;rounded=0;orthogonalLoop=1;jettySize=auto;html=1;" edge="1" parent="WIyWlLk6GJQsqaUBKTNV-1" source="hc9wLcFZlQd3v7HxFwp2-3" target="hc9wLcFZlQd3v7HxFwp2-5">
          <mxGeometry relative="1" as="geometry" />
        </mxCell>
        <mxCell id="hc9wLcFZlQd3v7HxFwp2-3" value="Ask for user input in form of a integer from 1-5" style="shape=parallelogram;perimeter=parallelogramPerimeter;whiteSpace=wrap;html=1;fixedSize=1;" vertex="1" parent="WIyWlLk6GJQsqaUBKTNV-1">
          <mxGeometry x="787.5" y="260" width="185" height="60" as="geometry" />
        </mxCell>
        <mxCell id="hc9wLcFZlQd3v7HxFwp2-8" style="edgeStyle=orthogonalEdgeStyle;rounded=0;orthogonalLoop=1;jettySize=auto;html=1;exitX=1;exitY=0.5;exitDx=0;exitDy=0;entryX=0;entryY=0.5;entryDx=0;entryDy=0;" edge="1" parent="WIyWlLk6GJQsqaUBKTNV-1" source="hc9wLcFZlQd3v7HxFwp2-5" target="hc9wLcFZlQd3v7HxFwp2-9">
          <mxGeometry relative="1" as="geometry">
            <mxPoint x="990" y="425" as="targetPoint" />
          </mxGeometry>
        </mxCell>
        <mxCell id="hc9wLcFZlQd3v7HxFwp2-11" style="edgeStyle=orthogonalEdgeStyle;rounded=0;orthogonalLoop=1;jettySize=auto;html=1;exitX=1;exitY=1;exitDx=0;exitDy=0;entryX=0;entryY=0.5;entryDx=0;entryDy=0;" edge="1" parent="WIyWlLk6GJQsqaUBKTNV-1" source="hc9wLcFZlQd3v7HxFwp2-5" target="hc9wLcFZlQd3v7HxFwp2-14">
          <mxGeometry relative="1" as="geometry">
            <mxPoint x="1030" y="520" as="targetPoint" />
          </mxGeometry>
        </mxCell>
        <mxCell id="hc9wLcFZlQd3v7HxFwp2-16" value="" style="edgeStyle=orthogonalEdgeStyle;rounded=0;orthogonalLoop=1;jettySize=auto;html=1;" edge="1" parent="WIyWlLk6GJQsqaUBKTNV-1" source="hc9wLcFZlQd3v7HxFwp2-5" target="hc9wLcFZlQd3v7HxFwp2-15">
          <mxGeometry relative="1" as="geometry" />
        </mxCell>
        <mxCell id="hc9wLcFZlQd3v7HxFwp2-5" value="Check which option the user chooses" style="rhombus;whiteSpace=wrap;html=1;" vertex="1" parent="WIyWlLk6GJQsqaUBKTNV-1">
          <mxGeometry x="805" y="360" width="150" height="130" as="geometry" />
        </mxCell>
        <mxCell id="hc9wLcFZlQd3v7HxFwp2-9" value="&quot;Invalid number, please choose the valid range&quot;" style="shape=parallelogram;perimeter=parallelogramPerimeter;whiteSpace=wrap;html=1;fixedSize=1;" vertex="1" parent="WIyWlLk6GJQsqaUBKTNV-1">
          <mxGeometry x="1040" y="390" width="150" height="70" as="geometry" />
        </mxCell>
        <mxCell id="hc9wLcFZlQd3v7HxFwp2-10" value="If input != 1-5" style="text;html=1;align=center;verticalAlign=middle;resizable=0;points=[];autosize=1;strokeColor=none;fillColor=none;" vertex="1" parent="WIyWlLk6GJQsqaUBKTNV-1">
          <mxGeometry x="955" y="390" width="90" height="30" as="geometry" />
        </mxCell>
        <mxCell id="hc9wLcFZlQd3v7HxFwp2-13" value="If input is not&lt;div&gt;&amp;nbsp;a integer&lt;/div&gt;" style="text;html=1;align=center;verticalAlign=middle;resizable=0;points=[];autosize=1;strokeColor=none;fillColor=none;" vertex="1" parent="WIyWlLk6GJQsqaUBKTNV-1">
          <mxGeometry x="905" y="460" width="90" height="40" as="geometry" />
        </mxCell>
        <mxCell id="hc9wLcFZlQd3v7HxFwp2-14" value="&quot;Invalid input, please input a number.&quot;" style="shape=parallelogram;perimeter=parallelogramPerimeter;whiteSpace=wrap;html=1;fixedSize=1;" vertex="1" parent="WIyWlLk6GJQsqaUBKTNV-1">
          <mxGeometry x="1030" y="480" width="190" height="70" as="geometry" />
        </mxCell>
        <mxCell id="hc9wLcFZlQd3v7HxFwp2-19" value="" style="edgeStyle=orthogonalEdgeStyle;rounded=0;orthogonalLoop=1;jettySize=auto;html=1;" edge="1" parent="WIyWlLk6GJQsqaUBKTNV-1" source="hc9wLcFZlQd3v7HxFwp2-15" target="hc9wLcFZlQd3v7HxFwp2-18">
          <mxGeometry relative="1" as="geometry" />
        </mxCell>
        <mxCell id="hc9wLcFZlQd3v7HxFwp2-15" value="Executes corresponding function based on user&#39;s choice" style="whiteSpace=wrap;html=1;" vertex="1" parent="WIyWlLk6GJQsqaUBKTNV-1">
          <mxGeometry x="820" y="605" width="120" height="60" as="geometry" />
        </mxCell>
        <mxCell id="hc9wLcFZlQd3v7HxFwp2-17" value="True" style="text;html=1;align=center;verticalAlign=middle;resizable=0;points=[];autosize=1;strokeColor=none;fillColor=none;" vertex="1" parent="WIyWlLk6GJQsqaUBKTNV-1">
          <mxGeometry x="830" y="520" width="50" height="30" as="geometry" />
        </mxCell>
        <mxCell id="hc9wLcFZlQd3v7HxFwp2-21" value="" style="edgeStyle=orthogonalEdgeStyle;rounded=0;orthogonalLoop=1;jettySize=auto;html=1;" edge="1" parent="WIyWlLk6GJQsqaUBKTNV-1" source="hc9wLcFZlQd3v7HxFwp2-18" target="hc9wLcFZlQd3v7HxFwp2-20">
          <mxGeometry relative="1" as="geometry" />
        </mxCell>
        <mxCell id="hc9wLcFZlQd3v7HxFwp2-18" value="Option 1 - Adding&lt;br&gt;tasks" style="shape=parallelogram;perimeter=parallelogramPerimeter;whiteSpace=wrap;html=1;fixedSize=1;" vertex="1" parent="WIyWlLk6GJQsqaUBKTNV-1">
          <mxGeometry x="260" y="720" width="120" height="60" as="geometry" />
        </mxCell>
        <mxCell id="hc9wLcFZlQd3v7HxFwp2-22" style="edgeStyle=orthogonalEdgeStyle;rounded=0;orthogonalLoop=1;jettySize=auto;html=1;entryX=0;entryY=0.5;entryDx=0;entryDy=0;" edge="1" parent="WIyWlLk6GJQsqaUBKTNV-1" source="hc9wLcFZlQd3v7HxFwp2-20" target="hc9wLcFZlQd3v7HxFwp2-1">
          <mxGeometry relative="1" as="geometry">
            <Array as="points">
              <mxPoint x="70" y="900" />
              <mxPoint x="70" y="180" />
            </Array>
          </mxGeometry>
        </mxCell>
        <mxCell id="hc9wLcFZlQd3v7HxFwp2-27" style="edgeStyle=orthogonalEdgeStyle;rounded=0;orthogonalLoop=1;jettySize=auto;html=1;exitX=0.5;exitY=1;exitDx=0;exitDy=0;entryX=0.5;entryY=0;entryDx=0;entryDy=0;" edge="1" parent="WIyWlLk6GJQsqaUBKTNV-1" source="hc9wLcFZlQd3v7HxFwp2-20" target="hc9wLcFZlQd3v7HxFwp2-24">
          <mxGeometry relative="1" as="geometry" />
        </mxCell>
        <mxCell id="hc9wLcFZlQd3v7HxFwp2-20" value="Asks if user wishes to go back" style="shape=parallelogram;perimeter=parallelogramPerimeter;whiteSpace=wrap;html=1;fixedSize=1;" vertex="1" parent="WIyWlLk6GJQsqaUBKTNV-1">
          <mxGeometry x="230" y="870" width="180" height="60" as="geometry" />
        </mxCell>
        <mxCell id="hc9wLcFZlQd3v7HxFwp2-23" value="Yes&lt;div&gt;&lt;br&gt;&lt;/div&gt;" style="text;html=1;align=center;verticalAlign=middle;resizable=0;points=[];autosize=1;strokeColor=none;fillColor=none;" vertex="1" parent="WIyWlLk6GJQsqaUBKTNV-1">
          <mxGeometry x="130" y="870" width="40" height="40" as="geometry" />
        </mxCell>
        <mxCell id="hc9wLcFZlQd3v7HxFwp2-29" value="" style="edgeStyle=orthogonalEdgeStyle;rounded=0;orthogonalLoop=1;jettySize=auto;html=1;" edge="1" parent="WIyWlLk6GJQsqaUBKTNV-1" source="hc9wLcFZlQd3v7HxFwp2-24" target="hc9wLcFZlQd3v7HxFwp2-28">
          <mxGeometry relative="1" as="geometry" />
        </mxCell>
        <mxCell id="hc9wLcFZlQd3v7HxFwp2-24" value="Asks user how many tasks they would like to add" style="shape=parallelogram;perimeter=parallelogramPerimeter;whiteSpace=wrap;html=1;fixedSize=1;" vertex="1" parent="WIyWlLk6GJQsqaUBKTNV-1">
          <mxGeometry x="220" y="990" width="200" height="60" as="geometry" />
        </mxCell>
        <mxCell id="hc9wLcFZlQd3v7HxFwp2-26" value="No" style="text;html=1;align=center;verticalAlign=middle;resizable=0;points=[];autosize=1;strokeColor=none;fillColor=none;" vertex="1" parent="WIyWlLk6GJQsqaUBKTNV-1">
          <mxGeometry x="320" y="940" width="40" height="30" as="geometry" />
        </mxCell>
        <mxCell id="hc9wLcFZlQd3v7HxFwp2-31" value="" style="edgeStyle=orthogonalEdgeStyle;rounded=0;orthogonalLoop=1;jettySize=auto;html=1;" edge="1" parent="WIyWlLk6GJQsqaUBKTNV-1" source="hc9wLcFZlQd3v7HxFwp2-28" target="hc9wLcFZlQd3v7HxFwp2-30">
          <mxGeometry relative="1" as="geometry" />
        </mxCell>
        <mxCell id="hc9wLcFZlQd3v7HxFwp2-36" style="edgeStyle=orthogonalEdgeStyle;rounded=0;orthogonalLoop=1;jettySize=auto;html=1;exitX=1;exitY=1;exitDx=0;exitDy=0;entryX=0;entryY=0.5;entryDx=0;entryDy=0;" edge="1" parent="WIyWlLk6GJQsqaUBKTNV-1" source="hc9wLcFZlQd3v7HxFwp2-28" target="hc9wLcFZlQd3v7HxFwp2-37">
          <mxGeometry relative="1" as="geometry">
            <mxPoint x="480" y="1280" as="targetPoint" />
          </mxGeometry>
        </mxCell>
        <mxCell id="hc9wLcFZlQd3v7HxFwp2-41" value="" style="edgeStyle=orthogonalEdgeStyle;rounded=0;orthogonalLoop=1;jettySize=auto;html=1;" edge="1" parent="WIyWlLk6GJQsqaUBKTNV-1" source="hc9wLcFZlQd3v7HxFwp2-28" target="hc9wLcFZlQd3v7HxFwp2-40">
          <mxGeometry relative="1" as="geometry" />
        </mxCell>
        <mxCell id="hc9wLcFZlQd3v7HxFwp2-28" value="User inputs a valid integer" style="rhombus;whiteSpace=wrap;html=1;" vertex="1" parent="WIyWlLk6GJQsqaUBKTNV-1">
          <mxGeometry x="240" y="1120" width="160" height="140" as="geometry" />
        </mxCell>
        <mxCell id="hc9wLcFZlQd3v7HxFwp2-34" style="edgeStyle=orthogonalEdgeStyle;rounded=0;orthogonalLoop=1;jettySize=auto;html=1;entryX=1;entryY=0.5;entryDx=0;entryDy=0;" edge="1" parent="WIyWlLk6GJQsqaUBKTNV-1" source="hc9wLcFZlQd3v7HxFwp2-30" target="hc9wLcFZlQd3v7HxFwp2-24">
          <mxGeometry relative="1" as="geometry">
            <Array as="points">
              <mxPoint x="580" y="1020" />
            </Array>
          </mxGeometry>
        </mxCell>
        <mxCell id="hc9wLcFZlQd3v7HxFwp2-30" value="&quot;Please enter a valid number.&quot;" style="shape=parallelogram;perimeter=parallelogramPerimeter;whiteSpace=wrap;html=1;fixedSize=1;" vertex="1" parent="WIyWlLk6GJQsqaUBKTNV-1">
          <mxGeometry x="500" y="1155" width="140" height="70" as="geometry" />
        </mxCell>
        <mxCell id="hc9wLcFZlQd3v7HxFwp2-35" value="Inputs something that &lt;br&gt;isn&#39;t a integer" style="text;html=1;align=center;verticalAlign=middle;resizable=0;points=[];autosize=1;strokeColor=none;fillColor=none;" vertex="1" parent="WIyWlLk6GJQsqaUBKTNV-1">
          <mxGeometry x="380" y="1150" width="140" height="40" as="geometry" />
        </mxCell>
        <mxCell id="hc9wLcFZlQd3v7HxFwp2-39" style="edgeStyle=orthogonalEdgeStyle;rounded=0;orthogonalLoop=1;jettySize=auto;html=1;entryX=1;entryY=0.5;entryDx=0;entryDy=0;" edge="1" parent="WIyWlLk6GJQsqaUBKTNV-1" source="hc9wLcFZlQd3v7HxFwp2-37" target="hc9wLcFZlQd3v7HxFwp2-24">
          <mxGeometry relative="1" as="geometry">
            <Array as="points">
              <mxPoint x="690" y="1020" />
            </Array>
          </mxGeometry>
        </mxCell>
        <mxCell id="hc9wLcFZlQd3v7HxFwp2-37" value="&quot;Sorry, I can only let you add up to 10 tasks and no more. Thanks for understanding!&quot;" style="shape=parallelogram;perimeter=parallelogramPerimeter;whiteSpace=wrap;html=1;fixedSize=1;" vertex="1" parent="WIyWlLk6GJQsqaUBKTNV-1">
          <mxGeometry x="470" y="1240" width="230" height="70" as="geometry" />
        </mxCell>
        <mxCell id="hc9wLcFZlQd3v7HxFwp2-38" value="Inputs more&lt;br&gt;&amp;nbsp;than&lt;br&gt;&amp;nbsp;number 10" style="text;html=1;align=center;verticalAlign=middle;resizable=0;points=[];autosize=1;strokeColor=none;fillColor=none;" vertex="1" parent="WIyWlLk6GJQsqaUBKTNV-1">
          <mxGeometry x="355" y="1223" width="90" height="60" as="geometry" />
        </mxCell>
        <mxCell id="hc9wLcFZlQd3v7HxFwp2-43" style="edgeStyle=orthogonalEdgeStyle;rounded=0;orthogonalLoop=1;jettySize=auto;html=1;" edge="1" parent="WIyWlLk6GJQsqaUBKTNV-1" source="hc9wLcFZlQd3v7HxFwp2-40" target="hc9wLcFZlQd3v7HxFwp2-42">
          <mxGeometry relative="1" as="geometry" />
        </mxCell>
        <mxCell id="hc9wLcFZlQd3v7HxFwp2-44" style="edgeStyle=orthogonalEdgeStyle;rounded=0;orthogonalLoop=1;jettySize=auto;html=1;" edge="1" parent="WIyWlLk6GJQsqaUBKTNV-1" source="hc9wLcFZlQd3v7HxFwp2-40">
          <mxGeometry relative="1" as="geometry">
            <mxPoint x="810" y="180" as="targetPoint" />
            <Array as="points">
              <mxPoint x="130" y="1365" />
              <mxPoint x="130" y="180" />
            </Array>
          </mxGeometry>
        </mxCell>
        <mxCell id="hc9wLcFZlQd3v7HxFwp2-40" value="Asks user to enter task description" style="shape=parallelogram;perimeter=parallelogramPerimeter;whiteSpace=wrap;html=1;fixedSize=1;" vertex="1" parent="WIyWlLk6GJQsqaUBKTNV-1">
          <mxGeometry x="260" y="1330" width="120" height="70" as="geometry" />
        </mxCell>
        <mxCell id="hc9wLcFZlQd3v7HxFwp2-42" value="Stored to json file holding already saved tasks" style="whiteSpace=wrap;html=1;" vertex="1" parent="WIyWlLk6GJQsqaUBKTNV-1">
          <mxGeometry x="260" y="1450" width="120" height="60" as="geometry" />
        </mxCell>
      </root>
    </mxGraphModel>
  </diagram>
</mxfile>
